<mxfile host="app.diagrams.net" modified="2023-12-22T03:00:08.827Z" agent="Mozilla/5.0 (Macintosh; Intel Mac OS X 10_15_7) AppleWebKit/537.36 (KHTML, like Gecko) Chrome/120.0.0.0 Safari/537.36" etag="dJL98LrE_E8p5KP2CZEw" version="22.1.11" type="github">
  <diagram name="第 1 页" id="3QkW4leFKtXJ5AIYtOZq">
    <mxGraphModel dx="2130" dy="1346" grid="0" gridSize="10" guides="1" tooltips="1" connect="1" arrows="1" fold="1" page="0" pageScale="1" pageWidth="827" pageHeight="1169" math="0" shadow="0">
      <root>
        <mxCell id="0" />
        <mxCell id="1" parent="0" />
        <mxCell id="5sS1oZ0axXHd3RQCzrBz-22" value="&lt;meta charset=&quot;utf-8&quot;&gt;&lt;div class=&quot;lake-content&quot;&gt;&lt;p style=&quot;margin: 0; padding: 0; min-height: 24px; margin-left: 2em&quot; class=&quot;ne-p&quot; id=&quot;ud80e75f0&quot;&gt;&lt;strong&gt;&lt;span style=&quot;font-size: 19px&quot; class=&quot;ne-text&quot;&gt;Flannel&lt;/span&gt;&lt;/strong&gt;&lt;/p&gt;&lt;/div&gt;" style="rounded=1;whiteSpace=wrap;html=1;sketch=1;hachureGap=4;jiggle=2;curveFitting=1;fontFamily=Architects Daughter;fontSource=https%3A%2F%2Ffonts.googleapis.com%2Fcss%3Ffamily%3DArchitects%2BDaughter;fontSize=20;" vertex="1" parent="1">
          <mxGeometry x="-30" y="90" width="1110" height="520" as="geometry" />
        </mxCell>
        <mxCell id="5sS1oZ0axXHd3RQCzrBz-11" value="" style="edgeStyle=orthogonalEdgeStyle;rounded=0;sketch=1;hachureGap=4;jiggle=2;curveFitting=1;orthogonalLoop=1;jettySize=auto;html=1;fontFamily=Architects Daughter;fontSource=https%3A%2F%2Ffonts.googleapis.com%2Fcss%3Ffamily%3DArchitects%2BDaughter;fontSize=16;" edge="1" parent="1" source="5sS1oZ0axXHd3RQCzrBz-1" target="5sS1oZ0axXHd3RQCzrBz-10">
          <mxGeometry relative="1" as="geometry" />
        </mxCell>
        <mxCell id="5sS1oZ0axXHd3RQCzrBz-1" value="智能DNS" style="rounded=1;whiteSpace=wrap;html=1;sketch=1;hachureGap=4;jiggle=2;curveFitting=1;fontFamily=Architects Daughter;fontSource=https%3A%2F%2Ffonts.googleapis.com%2Fcss%3Ffamily%3DArchitects%2BDaughter;fontSize=20;" vertex="1" parent="1">
          <mxGeometry x="477.5" y="-130" width="120" height="60" as="geometry" />
        </mxCell>
        <mxCell id="5sS1oZ0axXHd3RQCzrBz-2" value="" style="rounded=1;whiteSpace=wrap;html=1;sketch=1;hachureGap=4;jiggle=2;curveFitting=1;fontFamily=Architects Daughter;fontSource=https%3A%2F%2Ffonts.googleapis.com%2Fcss%3Ffamily%3DArchitects%2BDaughter;fontSize=20;" vertex="1" parent="1">
          <mxGeometry x="70" y="170" width="280" height="410" as="geometry" />
        </mxCell>
        <mxCell id="5sS1oZ0axXHd3RQCzrBz-4" value="阿里云" style="text;html=1;strokeColor=none;fillColor=none;align=center;verticalAlign=middle;whiteSpace=wrap;rounded=0;fontSize=20;fontFamily=Architects Daughter;" vertex="1" parent="1">
          <mxGeometry x="90" y="200" width="80" height="30" as="geometry" />
        </mxCell>
        <mxCell id="5sS1oZ0axXHd3RQCzrBz-6" value="前端" style="rounded=1;whiteSpace=wrap;html=1;sketch=1;hachureGap=4;jiggle=2;curveFitting=1;fontFamily=Architects Daughter;fontSource=https%3A%2F%2Ffonts.googleapis.com%2Fcss%3Ffamily%3DArchitects%2BDaughter;fontSize=20;" vertex="1" parent="1">
          <mxGeometry x="120" y="250" width="190" height="60" as="geometry" />
        </mxCell>
        <mxCell id="5sS1oZ0axXHd3RQCzrBz-7" value="后端" style="rounded=1;whiteSpace=wrap;html=1;sketch=1;hachureGap=4;jiggle=2;curveFitting=1;fontFamily=Architects Daughter;fontSource=https%3A%2F%2Ffonts.googleapis.com%2Fcss%3Ffamily%3DArchitects%2BDaughter;fontSize=20;" vertex="1" parent="1">
          <mxGeometry x="120" y="340" width="190" height="60" as="geometry" />
        </mxCell>
        <mxCell id="5sS1oZ0axXHd3RQCzrBz-8" value="数据库" style="shape=cylinder3;whiteSpace=wrap;html=1;boundedLbl=1;backgroundOutline=1;size=15;sketch=1;hachureGap=4;jiggle=2;curveFitting=1;fontFamily=Architects Daughter;fontSource=https%3A%2F%2Ffonts.googleapis.com%2Fcss%3Ffamily%3DArchitects%2BDaughter;fontSize=20;" vertex="1" parent="1">
          <mxGeometry x="165" y="440" width="90" height="90" as="geometry" />
        </mxCell>
        <mxCell id="5sS1oZ0axXHd3RQCzrBz-10" value="&lt;b&gt;ISTIO流量控制&lt;/b&gt;" style="rounded=1;whiteSpace=wrap;html=1;sketch=1;hachureGap=4;jiggle=2;curveFitting=1;fontFamily=Architects Daughter;fontSource=https%3A%2F%2Ffonts.googleapis.com%2Fcss%3Ffamily%3DArchitects%2BDaughter;fontSize=20;" vertex="1" parent="1">
          <mxGeometry x="465" y="-20" width="145" height="60" as="geometry" />
        </mxCell>
        <mxCell id="5sS1oZ0axXHd3RQCzrBz-12" value="" style="rounded=1;whiteSpace=wrap;html=1;sketch=1;hachureGap=4;jiggle=2;curveFitting=1;fontFamily=Architects Daughter;fontSource=https%3A%2F%2Ffonts.googleapis.com%2Fcss%3Ffamily%3DArchitects%2BDaughter;fontSize=20;" vertex="1" parent="1">
          <mxGeometry x="400" y="170" width="280" height="410" as="geometry" />
        </mxCell>
        <mxCell id="5sS1oZ0axXHd3RQCzrBz-13" value="弹内" style="text;html=1;strokeColor=none;fillColor=none;align=center;verticalAlign=middle;whiteSpace=wrap;rounded=0;fontSize=20;fontFamily=Architects Daughter;" vertex="1" parent="1">
          <mxGeometry x="420" y="200" width="80" height="30" as="geometry" />
        </mxCell>
        <mxCell id="5sS1oZ0axXHd3RQCzrBz-14" value="前端" style="rounded=1;whiteSpace=wrap;html=1;sketch=1;hachureGap=4;jiggle=2;curveFitting=1;fontFamily=Architects Daughter;fontSource=https%3A%2F%2Ffonts.googleapis.com%2Fcss%3Ffamily%3DArchitects%2BDaughter;fontSize=20;" vertex="1" parent="1">
          <mxGeometry x="450" y="250" width="190" height="60" as="geometry" />
        </mxCell>
        <mxCell id="5sS1oZ0axXHd3RQCzrBz-15" value="后端" style="rounded=1;whiteSpace=wrap;html=1;sketch=1;hachureGap=4;jiggle=2;curveFitting=1;fontFamily=Architects Daughter;fontSource=https%3A%2F%2Ffonts.googleapis.com%2Fcss%3Ffamily%3DArchitects%2BDaughter;fontSize=20;" vertex="1" parent="1">
          <mxGeometry x="450" y="340" width="190" height="60" as="geometry" />
        </mxCell>
        <mxCell id="5sS1oZ0axXHd3RQCzrBz-16" value="数据库" style="shape=cylinder3;whiteSpace=wrap;html=1;boundedLbl=1;backgroundOutline=1;size=15;sketch=1;hachureGap=4;jiggle=2;curveFitting=1;fontFamily=Architects Daughter;fontSource=https%3A%2F%2Ffonts.googleapis.com%2Fcss%3Ffamily%3DArchitects%2BDaughter;fontSize=20;" vertex="1" parent="1">
          <mxGeometry x="495" y="440" width="90" height="90" as="geometry" />
        </mxCell>
        <mxCell id="5sS1oZ0axXHd3RQCzrBz-17" value="" style="rounded=1;whiteSpace=wrap;html=1;sketch=1;hachureGap=4;jiggle=2;curveFitting=1;fontFamily=Architects Daughter;fontSource=https%3A%2F%2Ffonts.googleapis.com%2Fcss%3Ffamily%3DArchitects%2BDaughter;fontSize=20;" vertex="1" parent="1">
          <mxGeometry x="730" y="165" width="280" height="410" as="geometry" />
        </mxCell>
        <mxCell id="5sS1oZ0axXHd3RQCzrBz-18" value="AWS" style="text;html=1;strokeColor=none;fillColor=none;align=center;verticalAlign=middle;whiteSpace=wrap;rounded=0;fontSize=20;fontFamily=Architects Daughter;" vertex="1" parent="1">
          <mxGeometry x="750" y="195" width="80" height="30" as="geometry" />
        </mxCell>
        <mxCell id="5sS1oZ0axXHd3RQCzrBz-19" value="前端" style="rounded=1;whiteSpace=wrap;html=1;sketch=1;hachureGap=4;jiggle=2;curveFitting=1;fontFamily=Architects Daughter;fontSource=https%3A%2F%2Ffonts.googleapis.com%2Fcss%3Ffamily%3DArchitects%2BDaughter;fontSize=20;" vertex="1" parent="1">
          <mxGeometry x="780" y="245" width="190" height="60" as="geometry" />
        </mxCell>
        <mxCell id="5sS1oZ0axXHd3RQCzrBz-20" value="后端" style="rounded=1;whiteSpace=wrap;html=1;sketch=1;hachureGap=4;jiggle=2;curveFitting=1;fontFamily=Architects Daughter;fontSource=https%3A%2F%2Ffonts.googleapis.com%2Fcss%3Ffamily%3DArchitects%2BDaughter;fontSize=20;" vertex="1" parent="1">
          <mxGeometry x="780" y="335" width="190" height="60" as="geometry" />
        </mxCell>
        <mxCell id="5sS1oZ0axXHd3RQCzrBz-21" value="数据库" style="shape=cylinder3;whiteSpace=wrap;html=1;boundedLbl=1;backgroundOutline=1;size=15;sketch=1;hachureGap=4;jiggle=2;curveFitting=1;fontFamily=Architects Daughter;fontSource=https%3A%2F%2Ffonts.googleapis.com%2Fcss%3Ffamily%3DArchitects%2BDaughter;fontSize=20;" vertex="1" parent="1">
          <mxGeometry x="825" y="435" width="90" height="90" as="geometry" />
        </mxCell>
        <mxCell id="5sS1oZ0axXHd3RQCzrBz-23" value="运维控制台&amp;nbsp;&lt;strong style=&quot;background-color: initial;&quot;&gt;KubeFed&lt;/strong&gt;" style="text;html=1;strokeColor=none;fillColor=none;align=center;verticalAlign=middle;whiteSpace=wrap;rounded=0;fontSize=20;fontFamily=Architects Daughter;" vertex="1" parent="1">
          <mxGeometry y="120" width="210" height="30" as="geometry" />
        </mxCell>
        <mxCell id="5sS1oZ0axXHd3RQCzrBz-24" value="" style="shape=flexArrow;endArrow=classic;startArrow=classic;html=1;rounded=0;sketch=1;hachureGap=4;jiggle=2;curveFitting=1;fontFamily=Architects Daughter;fontSource=https%3A%2F%2Ffonts.googleapis.com%2Fcss%3Ffamily%3DArchitects%2BDaughter;fontSize=16;exitX=1;exitY=0.5;exitDx=0;exitDy=0;" edge="1" parent="1" source="5sS1oZ0axXHd3RQCzrBz-7" target="5sS1oZ0axXHd3RQCzrBz-15">
          <mxGeometry width="100" height="100" relative="1" as="geometry">
            <mxPoint x="300" y="410" as="sourcePoint" />
            <mxPoint x="400" y="310" as="targetPoint" />
          </mxGeometry>
        </mxCell>
        <mxCell id="5sS1oZ0axXHd3RQCzrBz-25" value="" style="shape=flexArrow;endArrow=classic;startArrow=classic;html=1;rounded=0;sketch=1;hachureGap=4;jiggle=2;curveFitting=1;fontFamily=Architects Daughter;fontSource=https%3A%2F%2Ffonts.googleapis.com%2Fcss%3Ffamily%3DArchitects%2BDaughter;fontSize=16;exitX=1;exitY=0.5;exitDx=0;exitDy=0;" edge="1" parent="1">
          <mxGeometry width="100" height="100" relative="1" as="geometry">
            <mxPoint x="640" y="369.5" as="sourcePoint" />
            <mxPoint x="780" y="369.5" as="targetPoint" />
          </mxGeometry>
        </mxCell>
        <mxCell id="5sS1oZ0axXHd3RQCzrBz-26" value="&lt;div class=&quot;lake-content&quot;&gt;&lt;p style=&quot;margin: 0; padding: 0; min-height: 24px; margin-left: 2em&quot; class=&quot;ne-p&quot; id=&quot;ud80e75f0&quot;&gt;&lt;strong&gt;Flannel网络通道&lt;/strong&gt;&lt;/p&gt;&lt;/div&gt;" style="text;html=1;align=center;verticalAlign=middle;resizable=0;points=[];autosize=1;strokeColor=none;fillColor=none;fontSize=20;fontFamily=Architects Daughter;" vertex="1" parent="1">
          <mxGeometry x="260" y="320" width="200" height="40" as="geometry" />
        </mxCell>
        <mxCell id="5sS1oZ0axXHd3RQCzrBz-27" value="&lt;div class=&quot;lake-content&quot;&gt;&lt;p style=&quot;margin: 0; padding: 0; min-height: 24px; margin-left: 2em&quot; class=&quot;ne-p&quot; id=&quot;ud80e75f0&quot;&gt;&lt;strong&gt;Flannel网络通道&lt;/strong&gt;&lt;/p&gt;&lt;/div&gt;" style="text;html=1;align=center;verticalAlign=middle;resizable=0;points=[];autosize=1;strokeColor=none;fillColor=none;fontSize=20;fontFamily=Architects Daughter;" vertex="1" parent="1">
          <mxGeometry x="590" y="320" width="200" height="40" as="geometry" />
        </mxCell>
        <mxCell id="5sS1oZ0axXHd3RQCzrBz-28" value="" style="endArrow=classic;startArrow=classic;html=1;rounded=0;sketch=1;hachureGap=4;jiggle=2;curveFitting=1;fontFamily=Architects Daughter;fontSource=https%3A%2F%2Ffonts.googleapis.com%2Fcss%3Ffamily%3DArchitects%2BDaughter;fontSize=16;" edge="1" parent="1" source="5sS1oZ0axXHd3RQCzrBz-8" target="5sS1oZ0axXHd3RQCzrBz-16">
          <mxGeometry width="50" height="50" relative="1" as="geometry">
            <mxPoint x="280" y="490" as="sourcePoint" />
            <mxPoint x="330" y="440" as="targetPoint" />
          </mxGeometry>
        </mxCell>
        <mxCell id="5sS1oZ0axXHd3RQCzrBz-29" value="" style="endArrow=classic;startArrow=classic;html=1;rounded=0;sketch=1;hachureGap=4;jiggle=2;curveFitting=1;fontFamily=Architects Daughter;fontSource=https%3A%2F%2Ffonts.googleapis.com%2Fcss%3Ffamily%3DArchitects%2BDaughter;fontSize=16;exitX=1;exitY=0.5;exitDx=0;exitDy=0;exitPerimeter=0;" edge="1" parent="1" source="5sS1oZ0axXHd3RQCzrBz-16" target="5sS1oZ0axXHd3RQCzrBz-21">
          <mxGeometry width="50" height="50" relative="1" as="geometry">
            <mxPoint x="600" y="520" as="sourcePoint" />
            <mxPoint x="650" y="470" as="targetPoint" />
          </mxGeometry>
        </mxCell>
        <mxCell id="5sS1oZ0axXHd3RQCzrBz-30" value="&lt;div class=&quot;lake-content&quot;&gt;&lt;p style=&quot;margin: 0; padding: 0; min-height: 24px; margin-left: 2em&quot; class=&quot;ne-p&quot; id=&quot;uce7f4a0a&quot;&gt;&lt;strong&gt;Velero容灾备份&lt;/strong&gt;&lt;/p&gt;&lt;/div&gt;" style="text;html=1;strokeColor=none;fillColor=none;align=center;verticalAlign=middle;whiteSpace=wrap;rounded=0;fontSize=20;fontFamily=Architects Daughter;" vertex="1" parent="1">
          <mxGeometry x="270" y="450" width="199" height="30" as="geometry" />
        </mxCell>
        <mxCell id="5sS1oZ0axXHd3RQCzrBz-31" value="&lt;strong style=&quot;border-color: var(--border-color);&quot;&gt;Velero容灾备份&lt;/strong&gt;" style="text;html=1;strokeColor=none;fillColor=none;align=center;verticalAlign=middle;whiteSpace=wrap;rounded=0;fontSize=20;fontFamily=Architects Daughter;" vertex="1" parent="1">
          <mxGeometry x="630" y="450" width="160" height="30" as="geometry" />
        </mxCell>
        <mxCell id="5sS1oZ0axXHd3RQCzrBz-34" style="edgeStyle=orthogonalEdgeStyle;rounded=0;sketch=1;hachureGap=4;jiggle=2;curveFitting=1;orthogonalLoop=1;jettySize=auto;html=1;fontFamily=Architects Daughter;fontSource=https%3A%2F%2Ffonts.googleapis.com%2Fcss%3Ffamily%3DArchitects%2BDaughter;fontSize=16;" edge="1" parent="1" source="5sS1oZ0axXHd3RQCzrBz-32">
          <mxGeometry relative="1" as="geometry">
            <mxPoint x="235" y="620" as="targetPoint" />
          </mxGeometry>
        </mxCell>
        <mxCell id="5sS1oZ0axXHd3RQCzrBz-32" value="开发人员" style="shape=umlActor;verticalLabelPosition=bottom;verticalAlign=top;html=1;outlineConnect=0;sketch=1;hachureGap=4;jiggle=2;curveFitting=1;fontFamily=Architects Daughter;fontSource=https%3A%2F%2Ffonts.googleapis.com%2Fcss%3Ffamily%3DArchitects%2BDaughter;fontSize=20;" vertex="1" parent="1">
          <mxGeometry x="220" y="730" width="30" height="60" as="geometry" />
        </mxCell>
        <mxCell id="5sS1oZ0axXHd3RQCzrBz-35" value="&lt;div class=&quot;lake-content&quot;&gt;&lt;p style=&quot;margin: 0; padding: 0; min-height: 24px; margin-left: 2em&quot; class=&quot;ne-p&quot; id=&quot;uf732833c&quot;&gt;&lt;strong&gt;通过Helm跨云部署&amp;nbsp;&lt;/strong&gt;&lt;/p&gt;&lt;/div&gt;" style="text;html=1;align=center;verticalAlign=middle;resizable=0;points=[];autosize=1;strokeColor=none;fillColor=none;fontSize=20;fontFamily=Architects Daughter;" vertex="1" parent="1">
          <mxGeometry y="680" width="230" height="40" as="geometry" />
        </mxCell>
        <mxCell id="5sS1oZ0axXHd3RQCzrBz-36" style="edgeStyle=orthogonalEdgeStyle;rounded=0;sketch=1;hachureGap=4;jiggle=2;curveFitting=1;orthogonalLoop=1;jettySize=auto;html=1;fontFamily=Architects Daughter;fontSource=https%3A%2F%2Ffonts.googleapis.com%2Fcss%3Ffamily%3DArchitects%2BDaughter;fontSize=16;" edge="1" parent="1" source="5sS1oZ0axXHd3RQCzrBz-37">
          <mxGeometry relative="1" as="geometry">
            <mxPoint x="790" y="620" as="targetPoint" />
          </mxGeometry>
        </mxCell>
        <mxCell id="5sS1oZ0axXHd3RQCzrBz-37" value="开发人员" style="shape=umlActor;verticalLabelPosition=bottom;verticalAlign=top;html=1;outlineConnect=0;sketch=1;hachureGap=4;jiggle=2;curveFitting=1;fontFamily=Architects Daughter;fontSource=https%3A%2F%2Ffonts.googleapis.com%2Fcss%3Ffamily%3DArchitects%2BDaughter;fontSize=20;" vertex="1" parent="1">
          <mxGeometry x="775" y="730" width="30" height="60" as="geometry" />
        </mxCell>
        <mxCell id="5sS1oZ0axXHd3RQCzrBz-38" value="&lt;div class=&quot;lake-content&quot;&gt;&lt;p style=&quot;margin: 0; padding: 0; min-height: 24px; text-indent: 2em; margin-left: 2em&quot; class=&quot;ne-p&quot; id=&quot;ud79244fc&quot;&gt;&lt;strong&gt;Argo CD工作流&lt;/strong&gt;&lt;/p&gt;&lt;/div&gt;" style="text;html=1;align=center;verticalAlign=middle;resizable=0;points=[];autosize=1;strokeColor=none;fillColor=none;fontSize=20;fontFamily=Architects Daughter;" vertex="1" parent="1">
          <mxGeometry x="720" y="663" width="240" height="40" as="geometry" />
        </mxCell>
        <mxCell id="5sS1oZ0axXHd3RQCzrBz-39" style="edgeStyle=orthogonalEdgeStyle;rounded=0;sketch=1;hachureGap=4;jiggle=2;curveFitting=1;orthogonalLoop=1;jettySize=auto;html=1;entryX=0.511;entryY=0;entryDx=0;entryDy=0;entryPerimeter=0;fontFamily=Architects Daughter;fontSource=https%3A%2F%2Ffonts.googleapis.com%2Fcss%3Ffamily%3DArchitects%2BDaughter;fontSize=16;" edge="1" parent="1" source="5sS1oZ0axXHd3RQCzrBz-10" target="5sS1oZ0axXHd3RQCzrBz-22">
          <mxGeometry relative="1" as="geometry" />
        </mxCell>
      </root>
    </mxGraphModel>
  </diagram>
</mxfile>
